<?xml version="1.0" encoding="UTF-8" standalone="no"?>
<svg
   xmlns:dc="http://purl.org/dc/elements/1.1/"
   xmlns:cc="http://creativecommons.org/ns#"
   xmlns:rdf="http://www.w3.org/1999/02/22-rdf-syntax-ns#"
   xmlns:svg="http://www.w3.org/2000/svg"
   xmlns="http://www.w3.org/2000/svg"
   xmlns:sodipodi="http://sodipodi.sourceforge.net/DTD/sodipodi-0.dtd"
   xmlns:inkscape="http://www.inkscape.org/namespaces/inkscape"
   version="1.1"
   width="502.60031"
   height="441.06461"
   id="svg2"
   inkscape:version="0.48.4 r9939"
   sodipodi:docname="Ajax.svg">
  <metadata
     id="metadata16">
    <rdf:RDF>
      <cc:Work
         rdf:about="">
        <dc:format>image/svg+xml</dc:format>
        <dc:type
           rdf:resource="http://purl.org/dc/dcmitype/StillImage" />
        <dc:title />
      </cc:Work>
    </rdf:RDF>
  </metadata>
  <defs
     id="defs14" />
  <sodipodi:namedview
     pagecolor="#ffffff"
     bordercolor="#666666"
     borderopacity="1"
     objecttolerance="10"
     gridtolerance="10"
     guidetolerance="10"
     inkscape:pageopacity="0"
     inkscape:pageshadow="2"
     inkscape:window-width="1280"
     inkscape:window-height="1001"
     id="namedview12"
     showgrid="false"
     fit-margin-top="1.3"
     fit-margin-left="1.3"
     fit-margin-right="1.3"
     fit-margin-bottom="1.3"
     inkscape:zoom="0.94867853"
     inkscape:cx="74.658997"
     inkscape:cy="207.3896"
     inkscape:window-x="-8"
     inkscape:window-y="-8"
     inkscape:window-maximized="1"
     inkscape:current-layer="svg2"
     showguides="true"
     inkscape:guide-bbox="true" />
  <path
     d="m 233.68007,429.59171 a 20.345787,20.345787 0 0 0 35.23994,0 L 498.57467,31.81892 A 20.345787,20.345787 0 0 0 480.95487,1.30055 L 21.645766,1.3 A 20.345787,20.345787 0 0 0 4.0258068,31.81866 z"
     style="fill:#ffffff;stroke:#000000;stroke-opacity:1;stroke-width:2;stroke-miterlimit:4;stroke-dasharray:none"
     id="path6"
     inkscape:connector-curvature="0" />
  <path
     d="M 251.30004,346.16778 85.068728,58.2749 l 332.463172,0 z M 491.52879,27.74443 c 2.12496,-3.69002 2.1214,-8.51259 -0.009,-12.19948 -2.13039,-3.68689 -6.30681,-6.09825 -10.56494,-6.09994 l -459.309114,0 c -4.25813,0.002 -8.43455,2.41305 -10.56494,6.09994 -2.1303892,3.68689 -2.1339392,8.50945 -0.009,12.19947 L 240.72797,425.5164 c 2.13058,3.6904 6.3108,6.10389 10.57207,6.10389 4.26127,0 8.44149,-2.41349 10.57207,-6.10389 z"
     style="fill:#cf181f;fill-opacity:1;stroke:none"
     id="path8"
     inkscape:connector-curvature="0"
     sodipodi:nodetypes="cccccsccsccscc" />
</svg>
